<svg width="28" height="28" viewBox="0 0 28 28" fill="none" xmlns="http://www.w3.org/2000/svg">
<path d="M21.2187 15.75C20.3967 15.75 19.5931 15.9938 18.9096 16.4505C18.2261 16.9071 17.6934 17.5563 17.3788 18.3157C17.0643 19.0752 16.982 19.9109 17.1423 20.7171C17.3027 21.5233 17.6985 22.2639 18.2798 22.8452C18.8611 23.4264 19.6016 23.8223 20.4079 23.9826C21.2141 24.143 22.0498 24.0607 22.8092 23.7461C23.5687 23.4315 24.2178 22.8988 24.6745 22.2153C25.1312 21.5318 25.375 20.7283 25.375 19.9062C25.3715 18.805 24.9325 17.7499 24.1538 16.9712C23.3751 16.1925 22.32 15.7535 21.2187 15.75V15.75Z" stroke="#025FBE" stroke-miterlimit="10"/>
<path d="M6.78121 15.75C5.95918 15.75 5.15561 15.9938 4.47212 16.4505C3.78863 16.9071 3.25591 17.5563 2.94133 18.3157C2.62676 19.0752 2.54445 19.9109 2.70482 20.7171C2.86519 21.5233 3.26103 22.2639 3.84229 22.8452C4.42356 23.4264 5.16413 23.8223 5.97036 23.9826C6.7766 24.143 7.61228 24.0607 8.37173 23.7461C9.13119 23.4315 9.78031 22.8988 10.237 22.2153C10.6937 21.5318 10.9375 20.7283 10.9375 19.9062C10.934 18.805 10.495 17.7499 9.71629 16.9712C8.9376 16.1925 7.88245 15.7535 6.78121 15.75Z" stroke="#025FBE" stroke-miterlimit="10"/>
<path d="M14 19.6875V14.9844L10.5 12.6875L14.875 7.875L17.0625 11.8125H20.125" stroke="#025FBE" stroke-linecap="round" stroke-linejoin="round"/>
<path d="M17.5003 7.4375C17.7308 7.4383 17.9591 7.3934 18.1722 7.3054C18.3852 7.21739 18.5787 7.08803 18.7414 6.92478C18.9042 6.76154 19.0329 6.56766 19.1203 6.35435C19.2076 6.14104 19.2518 5.91252 19.2503 5.68203C19.2528 5.45269 19.2096 5.22514 19.1232 5.01269C19.0368 4.80023 18.9089 4.60715 18.7469 4.44471C18.585 4.28228 18.3923 4.15376 18.1802 4.06667C17.968 3.97958 17.7406 3.93566 17.5112 3.93749C17.2814 3.93678 17.0537 3.98133 16.8411 4.06861C16.6285 4.15589 16.4352 4.2842 16.2722 4.44619C15.943 4.77336 15.7572 5.2179 15.7557 5.68203C15.7543 6.14616 15.9373 6.59186 16.2644 6.92107C16.5916 7.25029 17.0361 7.43605 17.5003 7.4375V7.4375Z" fill="#025FBE"/>
</svg>
