<svg width="24" height="29" viewBox="0 0 24 29" fill="none" xmlns="http://www.w3.org/2000/svg">
<path d="M15 9.96875V7.70312C15 7.10224 14.8025 6.52597 14.4508 6.10109C14.0992 5.6762 13.6223 5.4375 13.125 5.4375H4.125C3.62772 5.4375 3.15081 5.6762 2.79917 6.10109C2.44754 6.52597 2.25 7.10224 2.25 7.70312V21.2969C2.25 21.8978 2.44754 22.474 2.79917 22.8989C3.15081 23.3238 3.62772 23.5625 4.125 23.5625H13.125C13.6223 23.5625 14.0992 23.3238 14.4508 22.8989C14.8025 22.474 15 21.8978 15 21.2969V19.0312" stroke="white" stroke-width="2" stroke-linecap="round" stroke-linejoin="round"/>
<path d="M18 9.96875L21.75 14.5L18 19.0312" stroke="white" stroke-width="2" stroke-linecap="round" stroke-linejoin="round"/>
<path d="M8.95312 14.5H21.75" stroke="white" stroke-width="2" stroke-linecap="round" stroke-linejoin="round"/>
</svg>
