<svg width="28" height="28" viewBox="0 0 28 28" fill="none" xmlns="http://www.w3.org/2000/svg">
<path d="M4.375 25.375V3.72641C4.37527 3.64987 4.39561 3.57475 4.434 3.50853C4.47238 3.44232 4.52747 3.38733 4.59375 3.34906C5.02086 3.09859 6.17531 2.625 8.75 2.625C12.25 2.625 16.6797 5.25 19.25 5.25C20.7012 5.24623 22.137 4.95304 23.4735 4.38758C23.4902 4.38064 23.5083 4.37792 23.5262 4.37966C23.5441 4.3814 23.5614 4.38755 23.5764 4.39757C23.5914 4.40758 23.6037 4.42114 23.6121 4.43705C23.6206 4.45296 23.625 4.47072 23.625 4.48875V16.485C23.6249 16.5274 23.6125 16.5688 23.5893 16.6042C23.5661 16.6396 23.5331 16.6676 23.4943 16.6846C23.0437 16.882 21.4555 17.5 19.25 17.5C16.625 17.5 12.25 15.75 8.75 15.75C5.25 15.75 4.375 16.625 4.375 16.625" stroke="#025FBE" stroke-miterlimit="10" stroke-linecap="round"/>
</svg>
