<svg width="22" height="24" viewBox="0 0 22 24" fill="none" xmlns="http://www.w3.org/2000/svg">
<path d="M1.375 23.375V1.72641C1.37527 1.64987 1.39561 1.57475 1.434 1.50853C1.47238 1.44232 1.52747 1.38733 1.59375 1.34906C2.02086 1.09859 3.17531 0.625 5.75 0.625C9.25 0.625 13.6797 3.25 16.25 3.25C17.7012 3.24623 19.137 2.95304 20.4735 2.38758C20.4902 2.38064 20.5083 2.37792 20.5262 2.37966C20.5441 2.3814 20.5614 2.38755 20.5764 2.39757C20.5914 2.40758 20.6037 2.42114 20.6121 2.43705C20.6206 2.45296 20.625 2.47072 20.625 2.48875V14.485C20.6249 14.5274 20.6125 14.5688 20.5893 14.6042C20.5661 14.6396 20.5331 14.6676 20.4943 14.6846C20.0437 14.882 18.4555 15.5 16.25 15.5C13.625 15.5 9.25 13.75 5.75 13.75C2.25 13.75 1.375 14.625 1.375 14.625" stroke="#025FBE" stroke-miterlimit="10" stroke-linecap="round"/>
</svg>
