<svg width="19" height="19" viewBox="0 0 19 19" fill="none" xmlns="http://www.w3.org/2000/svg">
<path d="M9.5 1.78125C6.5498 1.78125 4.15625 4.05939 4.15625 6.86523C4.15625 10.0938 7.71875 15.21 9.02686 16.9772C9.08115 17.0518 9.15232 17.1125 9.23455 17.1543C9.31678 17.1962 9.40773 17.218 9.5 17.218C9.59227 17.218 9.68322 17.1962 9.76545 17.1543C9.84768 17.1125 9.91885 17.0518 9.97314 16.9772C11.2812 15.2108 14.8438 10.0963 14.8438 6.86523C14.8438 4.05939 12.4502 1.78125 9.5 1.78125Z" stroke="#025FBE" stroke-linecap="round" stroke-linejoin="round"/>
<path d="M9.5 8.90625C10.4838 8.90625 11.2812 8.10876 11.2812 7.125C11.2812 6.14124 10.4838 5.34375 9.5 5.34375C8.51624 5.34375 7.71875 6.14124 7.71875 7.125C7.71875 8.10876 8.51624 8.90625 9.5 8.90625Z" stroke="#025FBE" stroke-linecap="round" stroke-linejoin="round"/>
</svg>
