<svg width="60" height="60" viewBox="0 0 60 60" fill="none" xmlns="http://www.w3.org/2000/svg">
<circle cx="30" cy="30" r="30" fill="white"/>
<circle cx="30" cy="30" r="24" fill="#025FBE"/>
<path fill-rule="evenodd" clip-rule="evenodd" d="M30 21.25C30.4832 21.25 30.875 21.6418 30.875 22.125V37.875C30.875 38.3582 30.4832 38.75 30 38.75C29.5168 38.75 29.125 38.3582 29.125 37.875V22.125C29.125 21.6418 29.5168 21.25 30 21.25Z" fill="white"/>
<path fill-rule="evenodd" clip-rule="evenodd" d="M21.25 30C21.25 29.5168 21.6418 29.125 22.125 29.125H37.875C38.3582 29.125 38.75 29.5168 38.75 30C38.75 30.4832 38.3582 30.875 37.875 30.875H22.125C21.6418 30.875 21.25 30.4832 21.25 30Z" fill="white"/>
</svg>
