<svg width="152" height="210" viewBox="0 0 152 210" fill="none" xmlns="http://www.w3.org/2000/svg">
<path d="M52.5612 150.262C53.5187 150.262 54.2944 153.409 54.2944 157.293C54.2944 161.176 53.5187 164.324 52.5612 164.324C51.6045 164.324 50.8282 161.176 50.8282 157.293C50.8282 153.409 51.6045 150.262 52.5612 150.262ZM32.08 173.157C32.0826 173.195 32.0855 173.232 32.0878 173.269L32.078 173.158L32.08 173.157ZM55.4638 147.367C56.4462 145.958 60.6661 140.097 61.8289 137.233C62.992 134.369 65.6505 141.104 62.6375 144.413C59.6241 147.721 56.7154 149.199 56.2199 149.553C55.725 149.907 54.5198 148.72 55.4638 147.367ZM54.2477 144.708C55.0701 143.272 59.2111 133.364 60.3332 129.524C61.4556 125.683 62.5354 132.405 61.2354 135.891C59.9354 139.377 55.9821 144.294 54.7899 145.594C53.598 146.894 53.9056 145.306 54.2477 144.708ZM57.438 120.248C59.6829 121.37 59.565 125.329 59.565 125.329C59.565 125.329 57.7038 138.682 52.8739 142.995C54.602 141.34 57.9111 131.591 57.438 120.248ZM53.3026 140.218C55.1341 134.487 54.2477 121.547 53.3026 119.361C53.3026 119.361 54.6611 117.426 56.1383 118.298C56.6701 128.401 55.6659 136.673 53.3026 140.218ZM49.521 128.401C49.521 128.401 51.4119 119.716 52.1207 121.075C52.8295 122.434 53.2435 134.605 52.4162 140.69C52.5347 136.614 50.4662 129.169 49.521 128.401ZM46.3898 159.715C46.0355 159.361 46.8625 145.594 46.8625 145.594C47.2168 144.767 49.4025 147.485 50.0004 148.371C50.5979 149.257 49.8165 155.816 49.9935 156.525C50.1707 157.234 46.7438 160.07 46.3898 159.715ZM47.2465 176.082L46.3898 162.079C46.3898 162.079 49.1077 160.424 49.7851 160.542C50.4633 160.661 50.644 165.683 50.7928 167.81C50.9415 169.937 48.3398 175.313 47.2465 176.082ZM47.2465 142.803C47.2906 140.986 48.3983 130.528 49.0186 130.616C49.6392 130.706 50.1707 131.68 50.791 146.746C50.8755 148.791 47.4675 142.936 47.2465 142.803ZM56.788 163.113C57.8373 164.073 62.7113 168.149 63.1102 171.96C63.1102 171.96 62.1221 179.006 61.6335 181.015C61.2046 175.55 57.351 167.561 55.5768 165.18C54.5429 163.792 54.8248 161.315 56.788 163.113ZM55.9317 168.105C58.5311 172.359 61.0423 181.813 60.9241 182.846C60.8059 183.881 59.7423 188.962 58.265 190.439C58.7968 186.007 58.103 176.17 54.8236 169.287C54.0947 167.756 53.3319 163.851 55.9317 168.105ZM52.6079 168.105C57.6747 173.718 57.438 192.27 57.438 192.27C57.438 192.27 56.6699 194.043 54.9879 194.693C56.7924 186.185 54.1837 170.468 52.6079 168.105ZM53.0068 171.827C55.4292 183.999 53.3611 193.866 53.3611 193.866C53.3611 193.866 51.5886 193.097 50.2298 189.375C53.3026 185.83 53.125 174.014 53.0068 171.827ZM49.6098 187.012C48.6938 183.999 47.7486 177.913 47.7486 177.913C49.2847 176.909 51.2937 171.65 51.4707 170.055C52.1207 174.132 52.0616 184.412 49.6098 187.012ZM63.7031 145.594V156.525C63.7031 156.525 60.0392 155.831 57.0852 155.062C54.1313 154.294 55.1946 152.33 57.4614 151.06C60.7007 149.245 63.7031 145.594 63.7031 145.594ZM91.0115 95.3718C89.1032 99.5635 86.1496 102.758 82.8442 104.295C75.9271 107.512 68.2502 101.169 62.9329 102.936C60.6183 103.705 59.1113 104.595 58.3273 105.871C57.8811 106.596 57.6707 107.448 57.6825 108.475C56.6128 106.723 55.4987 105.405 54.3823 104.651C54.0794 104.447 53.673 104.265 53.1746 104.102C52.9065 99.6638 53.6395 95.9878 55.2992 92.8242C58.7882 86.1767 66.3654 81.7881 77.3341 77.3277C96.0042 69.7353 96.4472 63.5316 97.6584 53.4582C97.9945 54.6959 98.4748 55.6864 98.4857 56.2937C98.7515 71.065 96.1812 72.3053 86.0467 80.1073C82.4635 82.8658 79.351 86.3234 76.727 89.9588C75.7228 91.3501 75.9136 95.151 77.0461 96.1238C78.304 97.2059 81.7907 97.0505 83.3386 96.0872C91.4113 91.0605 89.107 84.384 99.0328 82.9662C92.7845 86.3712 92.3469 92.4374 91.0115 95.3718ZM64.5266 155.471C64.4407 160.243 64.1551 164.877 63.7074 169.181C64.0505 164.927 63.7008 158.582 63.7008 158.582C63.7008 158.582 62.1054 157.997 58.4426 157.465C56.2456 157.146 53.8932 158.354 56.2565 160.599C58.6187 162.843 62.6925 167.626 63.6997 169.283C63.7008 169.268 63.7025 169.254 63.704 169.239C63.7025 169.255 63.7008 169.149 63.6997 169.164C62.0529 184.923 58.2359 196.398 54.1266 196.398H54.0886C48.8324 196.398 44.7306 177.388 45.1325 155.005C45.5317 132.716 50.2944 113.959 55.5319 113.959H55.5696C60.8258 113.959 64.9276 133.088 64.5266 155.471ZM46.0473 208.653L45.4714 208.342L45.4985 208.295L46.054 208.652L46.094 208.678L46.0473 208.653ZM39.1862 104.694L39.1576 104.648L39.7722 104.295L39.1862 104.694ZM38.4408 105.182C38.2672 105.305 37.9937 105.464 37.6674 105.712C37.5959 105.765 37.5204 105.822 37.4429 105.882L37.5734 106.022L36.5865 107.016L36.3726 106.788L37.084 106.167C36.5046 106.64 35.8065 107.277 35.0504 108.104C34.0213 109.233 32.9113 110.733 31.8554 112.58C30.7924 114.423 29.7974 116.617 28.9021 119.078C28.5613 120.011 28.2365 120.983 27.9292 121.991L28.3259 120.779L29.4045 121.108L29.0234 122.457L27.8932 122.112C27.6911 122.781 27.496 123.465 27.3095 124.163L28.5043 124.464L28.1837 125.827L26.9619 125.521C26.8261 126.075 26.6926 126.634 26.5667 127.203C26.5387 127.332 26.5131 127.466 26.4851 127.594L27.7537 127.856L27.4902 129.233L26.1977 128.967C26.0591 129.653 25.9276 130.35 25.8014 131.054L27.1397 131.28L26.9258 132.665L25.563 132.436C25.448 133.128 25.3382 133.826 25.2353 134.533L26.6333 134.723L26.4571 136.113L25.0413 135.921C25.015 136.119 24.9851 136.312 24.9594 136.511C24.8951 137.011 24.8392 137.519 24.7801 138.025L26.2268 138.179L26.0905 139.574L24.6239 139.417C24.5507 140.117 24.4795 140.819 24.4163 141.527L25.9155 141.648L25.8149 143.046L24.3042 142.924C24.2483 143.625 24.1973 144.329 24.1514 145.037L25.6818 145.125L25.6059 146.525L24.063 146.436C24.024 147.139 23.9923 147.845 23.9624 148.552L25.516 148.607L25.4699 150.007L23.9087 149.951C23.8845 150.656 23.8626 151.36 23.8471 152.067L25.4229 152.092L25.4045 153.494L23.8246 153.469C23.8148 154.173 23.8093 154.877 23.8078 155.583L25.3975 155.582L25.3165 156.982L23.6363 156.988V157.013C23.6363 157.709 23.7257 158.404 23.7306 159.098L25.369 159.076L25.4056 160.478L23.8188 160.5C23.8272 161.205 23.8424 161.91 23.856 162.612L25.4598 162.569L25.4947 163.971L23.8929 164.014C23.9102 164.72 23.9324 165.424 23.9551 166.127L25.5607 166.06L25.6146 167.461L24.0039 167.528C24.0318 168.236 24.0647 168.939 24.099 169.642L25.7106 169.548L25.7798 170.948L24.1745 171.042C24.2146 171.75 24.2569 172.455 24.3042 173.156L25.9023 173.031L25.9994 174.43L24.4039 174.554C24.4806 175.563 24.5631 176.565 24.6588 177.553C24.9796 180.817 25.3739 183.963 25.8881 186.923C26.4064 189.882 27.0538 192.651 27.8182 195.156C28.5801 197.662 29.4892 199.893 30.4678 201.78C31.4476 203.668 32.521 205.197 33.5429 206.332C34.5656 207.469 35.5104 208.224 36.1737 208.705C36.3596 208.836 36.5248 208.941 36.6669 209.03C36.7807 209.101 36.8813 209.162 36.9597 209.215C37.139 209.329 37.2316 209.387 37.2316 209.387C37.2316 209.387 37.1376 209.331 36.9546 209.223C36.8672 209.169 36.7557 209.106 36.626 209.029C36.4882 208.949 36.3291 208.853 36.1524 208.737C35.475 208.272 34.4949 207.552 33.4411 206.425C32.3853 205.305 31.2674 203.787 30.2349 201.905C29.2027 200.025 28.2322 197.793 27.4378 195.276C26.6324 192.763 25.9415 189.984 25.3797 187.016C24.821 184.047 24.372 180.891 24.0468 177.613C23.3908 171.059 23.1313 164.033 23.0973 157.018C23.0913 149.992 23.4795 142.964 24.3506 136.431C24.7741 133.163 25.3696 130.028 26.0651 127.087C26.7586 124.146 27.59 121.405 28.5296 118.939C28.9894 117.702 29.4982 116.543 30.0075 115.453C30.5393 114.374 31.0688 113.362 31.6292 112.447C32.7358 110.609 33.8882 109.123 34.9501 108.01C36.0111 106.894 36.971 106.15 37.6464 105.68C37.9807 105.441 38.2583 105.291 38.4356 105.174C38.6154 105.062 38.7088 105.004 38.7088 105.004C38.7088 105.004 38.6172 105.065 38.4408 105.182ZM34.4454 109.749L34.0213 109.426L34.9048 108.337L35.2585 108.607L34.4454 109.749ZM32.6833 112.734L32.0604 112.373L32.7948 111.179L33.3546 111.504L32.6833 112.734ZM29.0471 118.77L29.5621 117.466L30.4851 117.81L30.0236 119.133L29.0471 118.77ZM30.0156 196.962L30.507 198.275L29.7334 198.587L29.1779 197.299L30.0156 196.962ZM28.9724 193.654L29.3653 195L28.4218 195.297L27.9742 193.968L28.9724 193.654ZM28.1443 190.281L28.4559 191.648L27.3568 191.923L26.9892 190.57L28.1443 190.281ZM27.4709 186.871L27.7254 188.249L26.4912 188.497L26.1963 187.125L27.4709 186.871ZM26.9348 183.432L27.1354 184.82L25.7901 185.036L25.548 183.655L26.9348 183.432ZM24.7614 178.059L24.6075 176.665L26.1657 176.508L26.2937 177.904L24.7614 178.059ZM26.5102 179.976L26.6702 181.369L25.2154 181.555L25.0196 180.167L26.5102 179.976ZM31.234 115.883L30.4174 115.507L31.0328 114.249L31.7868 114.596L31.234 115.883ZM31.3167 200.174L31.9388 201.431L31.3634 201.734L30.6771 200.512L31.3167 200.174ZM32.9687 203.217L33.7562 204.38L33.3933 204.643L32.5346 203.532L32.9687 203.217ZM35.0619 205.984L36.0515 206.98L35.9042 207.136L34.8472 206.214L35.0619 205.984ZM26.3395 207.277L26.5537 207.048L27.543 208.043L27.396 208.2L26.3395 207.277ZM24.0266 204.596L24.461 204.281L25.2477 205.444L24.8853 205.706L24.0266 204.596ZM21.5073 198.026L21.9988 199.339L21.2249 199.65L20.67 198.363L21.5073 198.026ZM20.4642 194.717L20.8576 196.063L19.9142 196.36L19.466 195.032L20.4642 194.717ZM19.6363 191.345L19.9476 192.712L18.8485 192.986L18.481 191.633L19.6363 191.345ZM18.963 187.934L19.2175 189.313L17.9832 189.56L17.6881 188.189L18.963 187.934ZM18.4263 184.496L18.6275 185.884L17.2822 186.1L17.0398 184.718L18.4263 184.496ZM19.2455 128.92L18.9823 130.297L17.6122 130.014L17.9161 128.645L19.2455 128.92ZM19.9963 125.527L19.6755 126.891L18.4193 126.576L18.7802 125.221L19.9963 125.527ZM20.5394 119.833L21.0542 118.53L21.9772 118.873L21.5154 120.197L20.5394 119.833ZM20.8963 122.171L20.5155 123.52L19.3818 123.175L19.8179 121.843L20.8963 122.171ZM18.1253 135.786L17.9492 137.176L16.4022 136.967L16.6025 135.58L18.1253 135.786ZM16.9395 133.48L17.1914 132.101L18.6318 132.343L18.4179 133.729L16.9395 133.48ZM22.8091 201.237L23.4308 202.494L22.8555 202.798L22.1689 201.575L22.8091 201.237ZM22.7258 116.946L21.9092 116.571L22.5249 115.313L23.2786 115.66L22.7258 116.946ZM24.8464 112.568L24.1751 113.798L23.5525 113.436L24.2869 112.242L24.8464 112.568ZM26.7506 109.67L25.9377 110.812L25.5131 110.49L26.3966 109.401L26.7506 109.67ZM29.0658 107.085L28.0782 108.08L27.8644 107.852L28.9194 106.929L29.0658 107.085ZM28.4466 209.223C28.2665 209.112 27.9872 208.963 27.6441 208.737C27.6309 208.727 27.6153 208.717 27.6018 208.707C26.9258 208.242 25.9657 207.529 24.9329 206.425C23.8773 205.305 22.7592 203.787 21.727 201.905C20.6948 200.025 19.724 197.793 18.9298 195.276C18.1248 192.763 17.4341 189.984 16.8712 187.016C16.3128 184.047 15.8637 180.89 15.5389 177.613C14.8828 171.059 14.624 164.033 14.5891 157.018C14.583 149.992 14.9719 142.964 15.843 136.431C16.2661 133.163 16.8614 130.028 17.5569 127.087C18.2516 124.146 19.082 121.405 20.0214 118.939C20.4815 117.702 20.9899 116.543 21.4998 115.453C22.0311 114.374 22.5609 113.362 23.1212 112.447C24.2275 110.609 25.38 109.123 26.4424 108.01C27.5029 106.894 28.4631 106.15 29.1384 105.68C29.4725 105.441 29.7504 105.291 29.9276 105.174C30.1078 105.062 30.2006 105.004 30.2006 105.004C30.2006 105.004 30.1092 105.065 29.9325 105.182C29.7593 105.305 29.4858 105.464 29.1592 105.712C28.4991 106.198 27.5741 106.975 26.5425 108.104C25.5128 109.233 24.4034 110.733 23.3475 112.58C22.2842 114.423 21.2897 116.617 20.3944 119.078C19.4957 121.538 18.7082 124.272 18.059 127.203C17.4061 130.135 16.8706 133.26 16.4515 136.511C16.3422 137.357 16.2425 138.213 16.15 139.075L17.7186 139.243L17.5823 140.638L16.0119 140.47C15.9442 141.17 15.881 141.875 15.8234 142.584L17.4073 142.711L17.307 144.11L15.711 143.981C15.6602 144.682 15.6176 145.389 15.5764 146.097L17.1738 146.188L17.0983 147.588L15.5031 147.497C15.4685 148.2 15.4366 148.905 15.4112 149.614L17.0084 149.671L16.962 151.071L15.3674 151.014C15.3481 151.718 15.3331 152.424 15.3221 153.13L16.9147 153.156L16.8965 154.557L15.3019 154.532C15.2956 155.236 15.2953 155.942 15.2982 156.646L16.8893 156.646L16.8931 158.046L15.3025 158.051C15.3051 158.755 15.3097 159.459 15.3172 160.161L16.9034 160.14L16.9187 161.541L15.3357 161.563C15.3466 162.269 15.361 162.972 15.3777 163.675L16.9545 163.633L16.9879 165.034L15.412 165.077C15.4328 165.783 15.4562 166.487 15.4832 167.189L17.0525 167.124L17.1067 168.524L15.5435 168.59C15.5749 169.296 15.6092 170.001 15.6473 170.702L17.2026 170.611L17.2721 172.011L15.7274 172.101C15.7712 172.81 15.8202 173.513 15.8718 174.213L17.3943 174.095L17.4912 175.493L15.9808 175.611C16.0341 176.262 16.0891 176.912 16.1508 177.553C16.1563 177.61 16.1629 177.665 16.1684 177.722L17.6575 177.572L17.7855 178.968L16.3151 179.116C16.3915 179.826 16.4725 180.528 16.5573 181.224L18.0022 181.04L18.1619 182.432L16.7299 182.616C16.9242 184.087 17.1378 185.527 17.3805 186.923C17.8982 189.882 18.5459 192.651 19.3103 195.156C20.0719 197.662 20.9813 199.892 21.9596 201.78C22.9396 203.668 24.0128 205.197 25.0346 206.332C26.0582 207.469 27.0022 208.224 27.6655 208.705C27.6689 208.707 27.6721 208.709 27.6753 208.711C28.0059 208.944 28.2766 209.099 28.4515 209.215C28.6308 209.329 28.7239 209.387 28.7239 209.387C28.7239 209.387 28.6294 209.331 28.4466 209.223ZM20.674 207.857C20.674 207.857 20.401 207.63 20.1272 207.403C19.8684 207.166 19.6092 206.929 19.6092 206.929L19.8292 206.704C19.8292 206.704 20.0722 206.958 20.3152 207.211C20.5645 207.453 20.8141 207.694 20.8141 207.694L20.674 207.857ZM18.1608 205.366C18.1608 205.366 17.9374 205.087 17.7146 204.808C17.5044 204.526 17.2937 204.246 17.2937 204.246L17.7336 203.938C17.7336 203.938 17.9259 204.232 18.1178 204.525C18.3159 204.808 18.5142 205.091 18.5142 205.091L18.1608 205.366ZM16.1234 202.45L15.4357 201.226L16.0759 200.887L16.6991 202.146L16.1234 202.45ZM14.4902 199.298L13.9345 198.009L14.7727 197.671L15.2645 198.987L14.4902 199.298ZM12.729 194.673L13.7287 194.358L14.1219 195.707L13.1773 196.004L12.729 194.673ZM12.1107 192.625L11.7432 191.27L12.8994 190.981L13.2113 192.35L12.1107 192.625ZM10.9494 187.821L12.2255 187.566L12.4803 188.947L11.2448 189.194L10.9494 187.821ZM10.5433 185.728L10.3011 184.345L11.6885 184.123L11.8899 185.513L10.5433 185.728ZM14.9151 116.069L15.5585 114.821L16.3042 115.182L15.7236 116.461L14.9151 116.069ZM17.4093 111.792L17.9584 112.133L17.2485 113.345L16.6371 112.965L17.4093 111.792ZM19.1506 109.539C19.3847 109.277 19.6182 109.015 19.6182 109.015L19.9589 109.301C19.9589 109.301 19.7418 109.576 19.5248 109.853C19.3187 110.131 19.1129 110.408 19.1129 110.408L18.6912 110.084C18.6912 110.084 18.9209 109.811 19.1506 109.539ZM21.6569 107.046L22.2012 106.603L22.3421 106.762C22.3421 106.762 22.0873 107.004 21.8328 107.246C21.5869 107.493 21.3416 107.738 21.3416 107.738L21.1245 107.515C21.1245 107.515 21.3906 107.28 21.6569 107.046ZM24.5288 105.004L23.9543 105.42L23.9246 105.376L24.5288 105.004ZM31.2643 105.358L30.678 105.757L30.6494 105.712L31.2643 105.358ZM47.5713 104.295L46.9853 104.694L46.9571 104.648L47.5713 104.295ZM43.7036 207.136L42.6463 206.214L42.8613 205.984L43.85 206.98L43.7036 207.136ZM41.1927 204.643L40.3337 203.532L40.7678 203.217L41.5547 204.38L41.1927 204.643ZM39.1625 201.734L38.4762 200.512L39.1158 200.174L39.7379 201.431L39.1625 201.734ZM37.5322 198.587L36.977 197.299L37.8144 196.962L38.3059 198.275L37.5322 198.587ZM35.773 193.968L36.7715 193.654L37.1644 195L36.221 195.297L35.773 193.968ZM35.1559 191.923L34.7881 190.57L35.9434 190.281L36.2553 191.648L35.1559 191.923ZM33.9948 187.125L35.2703 186.871L35.5246 188.249L34.2903 188.497L33.9948 187.125ZM33.5893 185.036L33.3468 183.655L34.7333 183.432L34.9345 184.82L33.5893 185.036ZM32.8185 180.167L34.3096 179.976L34.4687 181.369L33.0142 181.555L32.8185 180.167ZM32.4066 176.665L33.9643 176.508L34.0928 177.904L32.5599 178.059L32.4066 176.665ZM37.6994 208.295L38.2949 208.678L37.6723 208.342L37.6994 208.295ZM128.813 43.1764C135.258 31.1881 127.106 18.5205 151.315 -1.52588e-05C131.175 6.86635 130.229 11.2388 120.658 29.1998C114.367 41.0044 97.069 49.4645 75.8326 49.5911C77.1908 46.7734 78.1844 43.6895 79.9949 41.2007C82.7407 37.4261 86.4903 34.3502 89.0269 30.4635C93.2396 24.0085 92.5138 14.9108 87.7084 9.12622C88.3578 16.7008 84.9914 22.4237 80.6541 27.6658C74.321 35.3196 69.7952 38.1868 63.5809 42.284C55.6342 47.5229 52.4692 54.3071 51.1591 63.642C50.8112 66.1241 50.1924 69.4122 46.7438 68.5497C43.4352 67.7222 43.9671 61.1048 46.1015 54.9409C48.3118 48.5583 55.6659 41.0166 52.2977 30.2047C50.9764 42.5817 43.5554 43.989 36.877 54.8421C33.0964 60.9872 32.3697 64.4004 31.4412 72.0949C30.1343 82.9281 32.8144 94.2851 38.3952 103.263C29.493 103.589 19.7283 104.653 17.4258 105.129L17.3678 105.141L17.3168 105.172C17.1107 105.294 16.906 105.424 16.7022 105.557L16.8265 105.767C16.6368 105.879 16.4495 105.996 16.2632 106.119L16.1442 105.939C15.6089 106.321 15.0834 106.74 14.5698 107.197L14.6785 107.323C14.3499 107.606 14.0213 107.913 13.7013 108.234L13.5903 108.124C13.1239 108.594 12.6671 109.094 12.2206 109.627L12.3523 109.734C12.0747 110.074 11.7968 110.435 11.5265 110.807L11.3699 110.693C10.9647 111.227 10.5689 111.787 10.1821 112.371L10.3905 112.501C10.1558 112.878 9.92236 113.274 9.69551 113.677L9.44502 113.535C9.09394 114.115 8.75092 114.716 8.41598 115.338L8.73968 115.496C8.54108 115.901 8.34594 116.316 8.15483 116.741L7.77722 116.57C7.47254 117.182 7.1745 117.811 6.88538 118.459L7.34975 118.643C7.18199 119.065 7.01769 119.495 6.85685 119.933L6.33396 119.741C6.06964 120.377 5.81195 121.026 5.5629 121.692L6.17831 121.893C6.03707 122.326 5.89871 122.767 5.76323 123.215L5.08787 123.01C4.85957 123.663 4.63791 124.328 4.42346 125.006L5.13399 125.198L5.1925 125.214C5.07345 125.656 4.957 126.104 4.84343 126.558L4.72727 126.529L4.01501 126.35C3.819 127.016 3.62962 127.693 3.44687 128.381L4.15942 128.539L4.36523 128.585C4.26578 129.033 4.16893 129.486 4.07439 129.944L3.8092 129.89L3.09694 129.744C2.93004 130.419 2.77006 131.104 2.61556 131.799L3.32667 131.929L3.67689 131.993C3.59388 132.445 3.51403 132.902 3.4362 133.364L3.02689 133.295L2.3204 133.176C2.17944 133.859 2.04483 134.55 1.91599 135.25L2.62248 135.355L3.1102 135.427C3.04275 135.883 2.9776 136.342 2.91505 136.807L2.38208 136.735L1.67097 136.638C1.55423 137.327 1.44326 138.023 1.33834 138.727L2.04973 138.81L2.65275 138.881C2.59913 139.339 2.54782 139.801 2.49825 140.267L1.84998 140.198L1.14002 140.123C1.04605 140.815 0.957271 141.515 0.874544 142.222L1.58392 142.285L2.29503 142.349C2.25381 142.809 2.21403 143.273 2.17685 143.74L1.42596 143.68L0.718313 143.623C0.64481 144.319 0.57765 145.022 0.5151 145.73L1.2239 145.776L2.0261 145.828C1.99612 146.289 1.96787 146.753 1.94222 147.221L1.1112 147.175L0.399224 147.136C0.34561 147.834 0.298049 148.538 0.255388 149.246L0.967073 149.277L1.84018 149.313C1.82086 149.776 1.80357 150.241 1.78743 150.709L0.885786 150.679L0.177272 150.655C0.142682 151.355 0.113857 152.06 0.0899324 152.769L0.800177 152.784L1.73122 152.803C1.72113 153.266 1.71335 153.733 1.70758 154.201L0.762127 154.189L0.0490016 154.086C0.0325715 154.766 0.0221952 155.467 0.0158537 156.043H0.728691H1.72949V156.678L1.7367 157.696L0.705919 157.701C0.705919 157.742 0.711397 157.782 0.711397 157.824C0.711397 157.782 0.711109 157.742 0.711109 157.701L0 157.704V157.825C0 158.498 0.0121073 159.157 0.0184487 159.816L0.729555 159.808L1.71277 159.796C1.71825 160.264 1.72545 160.731 1.73381 161.195L0.749157 161.213L0.0406426 161.226C0.0518843 161.937 0.0648569 162.644 0.0821518 163.338L0.790666 163.32L1.77993 163.294C1.79233 163.762 1.80587 164.229 1.82086 164.693L0.83102 164.725L0.123371 164.747C0.146142 165.461 0.172371 166.164 0.201773 166.86L0.908846 166.83L1.89783 166.79C1.91743 167.257 1.93789 167.724 1.96038 168.187L0.971397 168.234L0.264323 168.269C0.299778 168.981 0.338115 169.688 0.381064 170.381L1.08698 170.339L2.07193 170.281C2.0996 170.749 2.12871 171.214 2.15984 171.676L1.18153 171.741L0.477338 171.788C0.527493 172.502 0.582549 173.205 0.641352 173.898L1.34439 173.842L2.31117 173.767C2.34807 174.234 2.38669 174.698 2.42734 175.158L1.46949 175.242L0.767029 175.304C0.835056 176.018 0.907982 176.72 0.984656 177.41L1.68539 177.339L2.6245 177.243C2.67206 177.709 2.72193 178.172 2.77266 178.631L1.84565 178.735L1.14809 178.812C1.23601 179.525 1.32911 180.227 1.42769 180.913L2.12468 180.823L3.02315 180.708C3.08281 181.173 3.14479 181.633 3.20936 182.089L2.33567 182.212L1.64244 182.31C1.75514 183.021 1.87246 183.719 1.99698 184.4L2.68647 184.289L3.52066 184.156C3.59474 184.618 3.6717 185.075 3.75126 185.528L2.95281 185.668L2.26448 185.789C2.4063 186.496 2.55417 187.189 2.70896 187.863L3.3921 187.726L4.13521 187.578C4.22658 188.037 4.32142 188.49 4.41856 188.938L3.72359 189.089L3.04246 189.237C3.21973 189.937 3.40219 190.623 3.59532 191.286L4.27155 191.119L4.89013 190.965C5.00226 191.419 5.11842 191.866 5.23747 192.306L4.68086 192.457L4.00982 192.638C4.23091 193.328 4.46035 193.997 4.69989 194.644L5.36862 194.437L5.81483 194.298C5.9529 194.744 6.09443 195.182 6.24057 195.611L5.87594 195.735L5.21181 195.961C5.48651 196.631 5.77419 197.274 6.07137 197.895L6.72137 197.64L6.94822 197.551C7.118 197.983 7.29383 198.41 7.47197 198.82L7.34629 198.874L6.70523 199.152C7.04392 199.788 7.39616 200.394 7.76108 200.973L8.34305 200.677C8.55146 201.086 8.7688 201.49 8.98844 201.876L8.53935 202.132C8.9501 202.708 9.37556 203.255 9.81658 203.767L10.0636 203.598C10.3219 203.975 10.5897 204.34 10.8595 204.684L10.747 204.772C11.966 206.005 13.2891 207.025 14.726 207.824L14.7842 207.85C15.7796 208.187 18.1072 208.554 21.1248 208.874C21.0559 208.831 20.9845 208.787 20.9084 208.737C20.6325 208.548 20.3051 208.313 19.9445 208.029C19.419 207.615 18.8223 207.093 18.1977 206.425C17.1415 205.305 16.0237 203.787 14.9915 201.905C13.959 200.025 12.9885 197.793 12.1943 195.276C11.389 192.763 10.698 189.984 10.136 187.016C9.57733 184.047 9.12824 180.89 8.8031 177.613C8.14733 171.059 7.8882 164.033 7.85361 157.018C7.84756 149.992 8.2364 142.964 9.1072 136.431C9.53063 133.163 10.1264 130.028 10.8214 127.087C11.5155 124.146 12.3465 121.405 13.2859 118.939C13.7457 117.702 14.2542 116.543 14.7641 115.453C15.2956 114.374 15.8257 113.362 16.3855 112.447C17.492 110.609 18.6445 109.123 19.7067 108.01C20.768 106.894 21.7279 106.15 22.4026 105.68C22.7373 105.441 23.0149 105.291 23.1919 105.174C23.2734 105.123 23.3343 105.085 23.3798 105.057C23.4346 105.023 23.4651 105.004 23.4651 105.004C23.4651 105.004 23.4372 105.022 23.3861 105.056C23.3415 105.086 23.2795 105.128 23.1971 105.182C23.0238 105.305 22.7503 105.464 22.4237 105.712C21.7639 106.198 20.8389 106.975 19.807 108.104C18.7773 109.233 17.6682 110.733 16.6123 112.58C15.702 114.158 14.8428 115.994 14.0524 118.032L14.9465 118.375L14.4715 119.696L13.5626 119.348C13.3274 120.005 13.0994 120.68 12.8801 121.373L13.8434 121.667L13.4606 123.018L12.4708 122.716C12.2753 123.386 12.0868 124.072 11.9067 124.771L12.9484 125.025L12.6351 126.394L11.5686 126.133C11.485 126.487 11.4028 126.843 11.3232 127.203C11.2497 127.534 11.1832 127.875 11.1125 128.21L12.2226 128.427L11.9738 129.809L10.8286 129.585C10.6943 130.273 10.5654 130.969 10.4435 131.675L11.6481 131.861L11.453 133.251L10.219 133.06C10.1086 133.753 10.0034 134.453 9.90449 135.159L11.1886 135.315L11.0321 136.71L9.71137 136.55C9.62201 137.246 9.54015 137.95 9.46174 138.657L10.8309 138.783L10.7142 140.183L9.31762 140.053C9.24757 140.753 9.18128 141.457 9.12161 142.165L10.5666 142.263L10.4839 143.665L9.00919 143.564C8.95644 144.266 8.91061 144.971 8.86766 145.679L10.3749 145.749L10.3132 147.152L8.78753 147.081C8.75121 147.784 8.71605 148.489 8.68866 149.197L10.2415 149.241L10.206 150.644L8.64514 150.6C8.62352 151.304 8.60593 152.009 8.59296 152.716L10.1703 152.736L10.1573 154.139L8.57077 154.12C8.56299 154.824 8.56212 155.529 8.56299 156.235L10.1533 156.234L10.1576 157.636L8.565 157.64C8.56673 158.345 8.56933 159.05 8.57625 159.754L10.168 159.732L10.1827 161.136L8.59498 161.157C8.60478 161.864 8.61746 162.569 8.63303 163.272L10.2181 163.23L10.2513 164.634L8.66531 164.676C8.68491 165.383 8.70913 166.088 8.73449 166.791L10.3155 166.726L10.3694 168.129L8.79013 168.194C8.8201 168.902 8.85239 169.608 8.88928 170.31L10.4651 170.218L10.5349 171.62L8.96941 171.712C9.01179 172.422 9.05848 173.126 9.10864 173.827L10.6571 173.707L10.7534 175.108L9.21097 175.228C9.26833 175.938 9.33001 176.642 9.3966 177.343L10.9194 177.189L11.0477 178.587L9.53986 178.739C9.61452 179.449 9.6935 180.154 9.77593 180.852L11.2644 180.662L11.4241 182.056L9.96877 182.242L9.79582 181.013C10.0388 183.045 10.315 185.025 10.6447 186.923C11.1624 189.882 11.8104 192.651 12.5748 195.156C13.3361 197.662 14.2461 199.892 15.2244 201.78C16.2042 203.668 17.2773 205.197 18.2997 206.332C18.9396 207.044 19.5493 207.606 20.0788 208.044C20.395 208.307 20.6821 208.525 20.9303 208.705C21.0222 208.77 21.1093 208.828 21.1908 208.881C21.5996 208.925 22.0204 208.967 22.4522 209.008L22.4554 209.003L22.464 209.009C24.5654 209.209 26.9241 209.384 29.3644 209.513L29.1641 209.405L29.1915 209.359L29.4388 209.475C32.1097 209.615 34.874 209.658 37.4973 209.658H37.4979C40.1777 209.658 42.5575 209.618 44.622 209.457C44.4484 209.355 44.2204 209.244 43.9512 209.066C43.8466 208.994 43.7324 208.927 43.6145 208.842C42.9677 208.38 42.1312 207.726 41.2405 206.773C40.1844 205.653 39.0663 204.138 38.0343 202.256C37.0018 200.376 36.0307 198.146 35.2366 195.629C34.4315 193.115 33.7406 190.338 33.1782 187.37C32.6196 184.4 32.1711 181.245 31.8454 177.968C31.1896 171.413 30.9305 164.387 30.8962 157.372C30.8898 150.347 31.2787 143.319 32.1495 136.785C32.5732 133.517 33.1687 130.383 33.8645 127.442C34.5578 124.501 35.3891 121.76 36.3291 119.294C36.7885 118.057 37.297 116.897 37.8063 115.807C38.3384 114.728 38.868 113.716 39.4283 112.802C40.3072 111.341 41.214 110.108 42.0828 109.103L42.7037 108.337L42.7455 108.369C42.7466 108.368 42.7478 108.366 42.7492 108.365C43.2995 107.785 43.8212 107.309 44.2919 106.917L44.172 106.788L45.2264 105.866L45.3728 106.022L45.1506 106.245C45.2535 106.17 45.3527 106.1 45.4455 106.035C45.7799 105.796 46.0574 105.645 46.2347 105.528C46.4146 105.416 46.5077 105.358 46.5077 105.358C46.5077 105.358 46.4166 105.419 46.2399 105.537C46.0664 105.659 45.7928 105.818 45.4668 106.067C45.2815 106.203 45.0739 106.364 44.8508 106.547L44.3859 107.016L44.3481 106.977C43.8933 107.381 43.3888 107.868 42.855 108.452L43.0574 108.607L42.2442 109.749L41.9476 109.523C41.5357 110.041 41.118 110.615 40.7012 111.241L41.1535 111.504L40.4827 112.734L39.9529 112.427C39.8532 112.594 39.7537 112.761 39.6546 112.934C39.4052 113.367 39.1602 113.82 38.919 114.289L39.5854 114.596L39.0325 115.883L38.3036 115.548C38.0113 116.173 37.7265 116.822 37.4492 117.498L38.2842 117.81L37.8225 119.133L36.9361 118.803C36.8577 119.012 36.7782 119.219 36.7012 119.432C36.5372 119.881 36.3781 120.342 36.2215 120.809L37.2039 121.108L36.8223 122.457L35.7912 122.143C35.5857 122.808 35.3876 123.49 35.1983 124.186L36.3037 124.464L35.9823 125.827L34.8429 125.542C34.6765 126.203 34.5168 126.874 34.3658 127.558C34.3618 127.575 34.3589 127.592 34.3549 127.609L35.5525 127.856L35.2893 129.233L34.0683 128.981C33.9268 129.666 33.7928 130.361 33.6633 131.065L34.9388 131.28L34.725 132.665L33.4175 132.445C33.301 133.136 33.1874 133.833 33.0819 134.54L34.4321 134.723L34.2563 136.113L32.8888 135.927C32.8462 136.241 32.7992 136.549 32.7582 136.866C32.709 137.25 32.6663 137.641 32.6205 138.029L34.0257 138.179L33.8893 139.574L32.4576 139.421C32.3824 140.119 32.3143 140.822 32.2492 141.53L33.7146 141.648L33.6143 143.046L32.1313 142.926C32.0739 143.627 32.0209 144.33 31.9731 145.038L33.4809 145.125L33.4051 146.525L31.8846 146.438C31.8436 147.14 31.809 147.845 31.7773 148.552L33.3148 148.607L33.2687 150.007L31.7185 149.952C31.6932 150.656 31.6695 151.361 31.6531 152.067L33.222 152.092L33.2039 153.494L31.6295 153.469C31.6182 154.173 31.6102 154.877 31.6073 155.583L33.1961 155.582L33.2001 156.982L31.6053 156.988C31.6055 157.115 31.6038 157.241 31.6044 157.368C31.605 157.945 31.6093 158.522 31.613 159.098L33.2105 159.076L33.2258 160.478L31.624 160.5C31.6312 161.205 31.6396 161.91 31.6519 162.612L33.2612 162.569L33.295 163.971L31.6845 164.014C31.7007 164.721 31.7203 165.424 31.7425 166.127L33.3601 166.06L33.414 167.461L31.7894 167.528C31.7935 167.623 31.7955 167.72 31.7995 167.815C31.8237 168.427 31.8531 169.035 31.8825 169.643L33.5097 169.548L33.5789 170.948L31.9535 171.043C31.9921 171.751 32.0347 172.456 32.08 173.157L33.702 173.031L33.7985 174.43L32.1999 174.555L32.0878 173.269C32.1901 174.837 32.3106 176.386 32.4576 177.908C32.7787 181.171 33.1727 184.317 33.687 187.278C34.205 190.236 34.8527 193.005 35.6171 195.51C36.3786 198.017 37.2884 200.247 38.2667 202.135C39.247 204.022 40.3201 205.551 41.3417 206.687C42.2281 207.672 43.055 208.368 43.6918 208.85C43.7892 208.925 43.8838 208.995 43.9725 209.059C44.2452 209.251 44.4738 209.389 44.6462 209.497C46.7005 209.336 48.4418 209.096 49.8537 208.777C54.0782 207.946 58.9153 205.649 62.8646 188.806C66.7447 172.257 66.1472 152.255 65.8598 142.643L65.8278 141.566C65.6422 135.198 64.6209 128.495 63.1013 122.538C63.4255 112.817 74.0535 115.931 84.6164 113.926C93.3313 112.271 99.4116 108.42 102.828 97.7409C101.676 110.414 95.6355 115.816 85.6993 121.016C84.5631 121.611 87.9687 125.776 98.7221 123.327C87.3827 133.783 71.8839 116.703 66.8367 125.655C65.4758 128.068 64.6618 134.561 68.8705 138.416C74.835 143.879 85.4872 143.147 88.2054 136.411C88.5005 145.392 72.243 146.389 68.073 153.866C67.4685 154.95 79.2991 157.196 80.4806 162.482C63.819 155.047 65.6194 167.655 70.9531 170.502C74.9857 172.655 79.3083 173.773 85.7094 172.536C93.5085 171.03 95.9016 163.762 104.587 164.324C95.8128 165.712 94.0767 176.807 86.2712 179.922C73.9815 184.826 66.2466 180.407 65.5565 180.93C65.5565 183.857 61.0907 193.82 62.1497 193.84C85.9204 194.298 103.28 188.713 115.403 161.985C118.153 155.923 121.1 144.047 133.649 141.327C129.395 140.973 119.104 138.95 108.361 153.498C104.32 158.971 96.3325 160.668 91.2184 154.99C85.7094 148.873 103.878 147.899 107.157 139.302C95.9016 142.492 94.4831 132.212 103.448 128.671C119.983 122.141 127.596 111.649 131.267 103.05C134.419 95.669 131.998 86.7093 138.907 81.8011C131.64 83.1895 129.513 92.4657 125.85 96.3057C121.435 100.934 119.07 100.539 117.038 101.079C114.04 101.877 110.491 100.821 109.387 99.735C108.248 98.6128 107.225 97.0601 108.146 94.196C108.548 92.9436 111.146 91.0005 112.263 89.9216C115.308 86.982 118.645 84.3048 121.418 81.1315C125.267 76.727 125.17 72.5359 121.555 68.6287C122.178 75.9099 117.688 78.7459 110.48 78.805C108.855 78.8183 106.257 77.2557 105.543 76.0739C104.83 74.8961 103.249 71.2523 104.587 67.9588C109.196 56.6148 120.539 58.5642 128.813 43.1764Z" fill="#007DFE"/>
</svg>
